{
  "accessors": [
    {
      "bufferView": 2,
      "componentType": 5126,
      "count": 23642,
      "max": [
        0.29900461435317993,
        0.02157205156981945,
        0.866461455821991
      ],
      "min": [
        -0.6357505321502686,
        -0.03222300857305527,
        -0.521737277507782
      ],
      "type": "VEC3"
    },
    {
      "bufferView": 2,
      "byteOffset": 283704,
      "componentType": 5126,
      "count": 23642,
      "max": [
        0.9999954700469971,
        0.9999999403953552,
        0.9998356103897095
      ],
      "min": [
        -0.9857192635536194,
        -0.29316574335098267,
        -0.9998598694801331
      ],
      "type": "VEC3"
    },
    {
      "bufferView": 1,
      "componentType": 5126,
      "count": 23642,
      "max": [
        0.9892449378967285,
        0.9534279704093933
      ],
      "min": [
        0.004906935151666403,
        0.01834271289408207
      ],
      "type": "VEC2"
    },
    {
      "bufferView": 1,
      "byteOffset": 189136,
      "componentType": 5126,
      "count": 23642,
      "max": [
        0.9892449378967285,
        0.9534279704093933
      ],
      "min": [
        0.004906935151666403,
        0.01834271289408207
      ],
      "type": "VEC2"
    },
    {
      "bufferView": 1,
      "byteOffset": 378272,
      "componentType": 5126,
      "count": 23642,
      "max": [
        0.9892449378967285,
        0.9534279704093933
      ],
      "min": [
        0.004906935151666403,
        0.01834271289408207
      ],
      "type": "VEC2"
    },
    {
      "bufferView": 1,
      "byteOffset": 567408,
      "componentType": 5126,
      "count": 23642,
      "max": [
        0.9892449378967285,
        0.9534279704093933
      ],
      "min": [
        0.004906935151666403,
        0.01834271289408207
      ],
      "type": "VEC2"
    },
    {
      "bufferView": 1,
      "byteOffset": 756544,
      "componentType": 5126,
      "count": 23642,
      "max": [
        0.9892449378967285,
        0.9534279704093933
      ],
      "min": [
        0.004906935151666403,
        0.01834271289408207
      ],
      "type": "VEC2"
    },
    {
      "bufferView": 0,
      "componentType": 5125,
      "count": 132003,
      "type": "SCALAR"
    }
  ],
  "asset": {
    "extras": {
      "author": "Gustav_capture (https://sketchfab.com/Gustav_capture)",
      "license": "CC-BY-NC-SA-4.0 (http://creativecommons.org/licenses/by-nc-sa/4.0/)",
      "source": "https://sketchfab.com/3d-models/traffic-rug-1b9e3886a85043178a4569bfdf46e0cf",
      "title": "Traffic rug"
    },
    "generator": "Sketchfab-14.45.0",
    "version": "2.0"
  },
  "bufferViews": [
    {
      "buffer": 0,
      "byteLength": 528012,
      "name": "floatBufferViews",
      "target": 34963
    },
    {
      "buffer": 0,
      "byteLength": 945680,
      "byteOffset": 528012,
      "byteStride": 8,
      "name": "floatBufferViews",
      "target": 34962
    },
    {
      "buffer": 0,
      "byteLength": 567408,
      "byteOffset": 1473692,
      "byteStride": 12,
      "name": "floatBufferViews",
      "target": 34962
    }
  ],
  "buffers": [
    {
      "byteLength": 2041100,
      "uri": "scene.bin"
    }
  ],
  "extensionsUsed": [
    "KHR_materials_unlit"
  ],
  "images": [
    {
      "uri": "textures/material_0_baseColor.jpeg"
    }
  ],
  "materials": [
    {
      "extensions": {
        "KHR_materials_unlit": {}
      },
      "name": "material_0",
      "pbrMetallicRoughness": {
        "baseColorTexture": {
          "index": 0
        },
        "metallicFactor": 0.0
      }
    }
  ],
  "meshes": [
    {
      "name": "Object_0",
      "primitives": [
        {
          "attributes": {
            "NORMAL": 1,
            "POSITION": 0,
            "TEXCOORD_0": 2,
            "TEXCOORD_1": 3,
            "TEXCOORD_2": 4,
            "TEXCOORD_3": 5,
            "TEXCOORD_4": 6
          },
          "indices": 7,
          "material": 0,
          "mode": 4
        }
      ]
    }
  ],
  "nodes": [
    {
      "children": [
        1
      ],
      "matrix": [
        1.0,
        0.0,
        0.0,
        0.0,
        0.0,
        2.220446049250313e-16,
        -1.0,
        0.0,
        0.0,
        1.0,
        2.220446049250313e-16,
        0.0,
        0.0,
        0.0,
        0.0,
        1.0
      ],
      "name": "Sketchfab_model"
    },
    {
      "children": [
        2
      ],
      "name": "root"
    },
    {
      "children": [
        3
      ],
      "matrix": [
        1.0,
        0.0,
        0.0,
        0.0,
        0.0,
        2.220446049250313e-16,
        1.0,
        0.0,
        0.0,
        -1.0,
        2.220446049250313e-16,
        0.0,
        0.0,
        0.0,
        0.0,
        1.0
      ],
      "name": "GLTF_SceneRootNode"
    },
    {
      "children": [
        4
      ],
      "name": "_0"
    },
    {
      "mesh": 0,
      "name": "Object_4"
    }
  ],
  "samplers": [
    {
      "magFilter": 9729,
      "minFilter": 9987,
      "wrapS": 10497,
      "wrapT": 10497
    }
  ],
  "scene": 0,
  "scenes": [
    {
      "name": "Sketchfab_Scene",
      "nodes": [
        0
      ]
    }
  ],
  "textures": [
    {
      "sampler": 0,
      "source": 0
    }
  ]
}
